# xmcd
#
# Track frame offsets: 
#        150
#        21693
#        42190
#        54082
#        80509
#        110492
#        128681
#        153382
#        182506
#        212030
#        233793
#        253681
#
# Disc length: 3662 seconds
#
# Revision: 2
# Processed by: cddbd v1.5.2PL0 Copyright (c) Steve Scherf et al.
# Submitted via: ExactAudioCopyFreeDBPlugin 1.0
#
DISCID=9a0e4c0c
DTITLE=Endres Quartet - Schubert Edition CD10 - String Quartets 2-4
DYEAR=2014
DGENRE=Classical
TTITLE0=String Quartet No.2 in C, D.32 (fragment) - I. Presto
TTITLE1=String Quartet No.2 in C, D.32 (fragment) - II. Andante
TTITLE2=String Quartet No.2 in C, D.32 (fragment) - III. Menuetto: All
TTITLE2=egro - Trio
TTITLE3=String Quartet No.2 in C, D.32 (fragment) - IV. Allegro con sp
TTITLE3=irito
TTITLE4=String Quartet No.3 in B flat, D.36 - I. Allegro
TTITLE5=String Quartet No.3 in B flat, D.36 - II. Andante
TTITLE6=String Quartet No.3 in B flat, D.36 - III. Menuetto: Allegro m
TTITLE6=a non troppo - Trio
TTITLE7=String Quartet No.3 in B flat, D.36 - IV. Allegretto
TTITLE8=String Quartet No.4 in C, D.46 - I. Adagio - Allegro con moto
TTITLE9=String Quartet No.4 in C, D.46 - II. Andante con moto
TTITLE10=String Quartet No.4 in C, D.46 - III. Menuetto: Allegro - Tri
TTITLE10=o
TTITLE11=String Quartet No.4 in C, D.46 - IV. Allegro
EXTD=
EXTT0=
EXTT1=
EXTT2=
EXTT3=
EXTT4=
EXTT5=
EXTT6=
EXTT7=
EXTT8=
EXTT9=
EXTT10=
EXTT11=
PLAYORDER=
